<svg xmlns="http://www.w3.org/2000/svg" fill="none" viewBox="0 0 432 312" height="312" width="432">
<g clip-path="url(#clip0_2838_212415)">
<rect fill="white" height="312" width="432"></rect>
<g filter="url(#filter0_ii_2838_212415)">
<path fill="#56EAF3" d="M210 71.5551C222.665 71.5551 233.783 64.9333 240.082 54.9631C245.981 45.6248 254.51 36 265.555 36H401C412.046 36 421 44.9543 421 56V95.9983C421 107.044 411.375 115.573 402.037 121.472C392.066 127.77 385.444 138.889 385.444 151.554C385.444 164.219 392.066 175.337 402.037 181.636C411.375 187.535 421 196.064 421 207.109V256C421 267.046 412.046 276 401 276H265.555C254.51 276 245.981 285.625 240.082 294.963C233.783 304.933 222.665 311.555 210 311.555C197.335 311.555 186.217 304.933 179.918 294.963C174.019 285.625 165.49 276 154.445 276H20C8.95431 276 1.71373e-06 267.046 1.71373e-06 256V211.554C1.71373e-06 200.508 9.62499 191.979 18.9634 186.08C28.9337 179.782 35.5556 168.663 35.5556 155.998C35.5556 143.333 28.9337 132.215 18.9634 125.917C9.62499 120.017 -2.93738e-07 111.489 0 100.443L1.18187e-06 56C1.47561e-06 44.9543 8.95431 36 20 36H154.445C165.49 36 174.019 45.6248 179.918 54.9631C186.217 64.9333 197.335 71.5551 210 71.5551Z" clip-rule="evenodd" fill-rule="evenodd"></path>
</g>
<path fill="#254B50" d="M179.759 134.51V124.199H182.603V134.332C182.603 136.666 183.87 137.954 186.181 137.954C188.492 137.954 189.781 136.643 189.781 134.332V124.199H192.625V134.51C192.625 138.31 190.136 140.71 186.181 140.71C182.247 140.71 179.759 138.332 179.759 134.51ZM198.435 140.443H195.724V129.466H198.235L198.457 130.888C199.146 129.777 200.48 129.132 201.968 129.132C204.724 129.132 206.146 130.843 206.146 133.688V140.443H203.435V134.332C203.435 132.488 202.524 131.599 201.124 131.599C199.457 131.599 198.435 132.754 198.435 134.532V140.443ZM213.321 140.732C210.143 140.732 208.165 138.399 208.165 134.999C208.165 131.577 210.165 129.132 213.477 129.132C215.01 129.132 216.365 129.777 217.054 130.866V123.91H219.743V140.443H217.254L217.077 138.732C216.41 139.999 214.988 140.732 213.321 140.732ZM213.921 138.243C215.81 138.243 217.032 136.888 217.032 134.91C217.032 132.932 215.81 131.554 213.921 131.554C212.032 131.554 210.877 132.954 210.877 134.91C210.877 136.866 212.032 138.243 213.921 138.243ZM227.48 140.732C224.213 140.732 221.924 138.354 221.924 134.954C221.924 131.51 224.169 129.132 227.391 129.132C230.68 129.132 232.769 131.332 232.769 134.754V135.577L224.502 135.599C224.702 137.532 225.724 138.51 227.524 138.51C229.013 138.51 229.991 137.932 230.302 136.888H232.813C232.346 139.288 230.346 140.732 227.48 140.732ZM227.413 131.354C225.813 131.354 224.835 132.221 224.569 133.866H230.08C230.08 132.354 229.035 131.354 227.413 131.354ZM241.827 129.421V131.932H240.827C238.872 131.932 237.65 132.977 237.65 135.11V140.443H234.938V129.488H237.494L237.65 131.088C238.116 129.999 239.161 129.266 240.627 129.266C241.005 129.266 241.383 129.31 241.827 129.421Z"></path>
<path fill="#254B50" d="M166.689 186.11L158.689 172.155V168.866H161.356C162.422 168.866 163.356 168.718 164.156 168.421C164.985 168.096 165.667 167.636 166.2 167.044C166.763 166.451 167.148 165.74 167.356 164.91H158.689V161.621H167.311C167.134 160.851 166.822 160.17 166.378 159.577C165.963 158.984 165.4 158.525 164.689 158.199C164.008 157.844 163.178 157.666 162.2 157.666H158.689V154.377H178.734V157.666H171.756C172.259 158.229 172.674 158.836 173 159.488C173.356 160.14 173.593 160.851 173.711 161.621H178.734V164.91H173.8C173.504 167.103 172.659 168.821 171.267 170.066C169.874 171.281 168.082 172.11 165.889 172.555L174.6 186.11H166.689ZM209.323 180.288H205.279V186.11H198.479V180.288H182.123V173.977L196.301 153.221H205.279V173.977H209.323V180.288ZM189.768 173.977H198.479V161.177L189.768 173.977ZM230.299 177.266L223.854 186.11H215.632L223.143 176.021C222.699 176.11 222.254 176.155 221.81 176.155C215.054 176.155 210.432 171.488 210.432 164.733C210.432 157.533 215.721 152.644 223.01 152.644C230.388 152.644 235.766 157.888 235.766 164.777C235.766 168.821 234.299 171.799 230.299 177.266ZM228.388 164.688C228.388 161.31 226.21 158.999 223.01 158.999C219.899 158.999 217.721 161.31 217.721 164.688C217.721 168.066 219.854 170.333 223.01 170.333C226.254 170.333 228.388 168.066 228.388 164.688ZM258.294 177.266L251.849 186.11H243.627L251.138 176.021C250.694 176.11 250.249 176.155 249.805 176.155C243.049 176.155 238.427 171.488 238.427 164.733C238.427 157.533 243.716 152.644 251.005 152.644C258.383 152.644 263.76 157.888 263.76 164.777C263.76 168.821 262.294 171.799 258.294 177.266ZM256.383 164.688C256.383 161.31 254.205 158.999 251.005 158.999C247.894 158.999 245.716 161.31 245.716 164.688C245.716 168.066 247.849 170.333 251.005 170.333C254.249 170.333 256.383 168.066 256.383 164.688Z"></path>
<g filter="url(#filter1_ii_2838_212415)">
<path fill="#69FC92" d="M591.754 36.0001C602.679 36.0001 611.153 26.5768 617.053 17.3813C623.375 7.52966 634.425 1.00195 647 1.00195C659.574 1.00195 670.624 7.52966 676.946 17.3813C682.847 26.5768 691.32 36.0001 702.246 36.0001H838C849.045 36.0001 858 44.9544 858 56.0001V100.559C858 111.39 867.265 119.819 876.347 125.72C886.103 132.059 892.555 143.054 892.555 155.556C892.555 168.058 886.103 179.053 876.347 185.392C867.265 191.293 858 199.722 858 210.553V256C858 267.046 849.045 276 838 276H457C445.954 276 437 267.046 437 256V210.802C437 199.876 427.576 191.403 418.381 185.502C408.529 179.181 402.001 168.131 402.001 155.556C402.001 142.981 408.529 131.931 418.381 125.609C427.576 119.709 437 111.235 437 100.309V56.0001C437 44.9544 445.954 36.0001 457 36.0001H591.754Z" clip-rule="evenodd" fill-rule="evenodd"></path>
</g>
</g>
<defs>
<filter color-interpolation-filters="sRGB" filterUnits="userSpaceOnUse" height="283.555" width="421" y="32" x="0" id="filter0_ii_2838_212415">
<feFlood result="BackgroundImageFix" flood-opacity="0"></feFlood>
<feBlend result="shape" in2="BackgroundImageFix" in="SourceGraphic" mode="normal"></feBlend>
<feColorMatrix result="hardAlpha" values="0 0 0 0 0 0 0 0 0 0 0 0 0 0 0 0 0 0 127 0" type="matrix" in="SourceAlpha"></feColorMatrix>
<feOffset dy="-4"></feOffset>
<feGaussianBlur stdDeviation="2"></feGaussianBlur>
<feComposite k3="1" k2="-1" operator="arithmetic" in2="hardAlpha"></feComposite>
<feColorMatrix values="0 0 0 0 0 0 0 0 0 0 0 0 0 0 0 0 0 0 0.1 0" type="matrix"></feColorMatrix>
<feBlend result="effect1_innerShadow_2838_212415" in2="shape" mode="normal"></feBlend>
<feColorMatrix result="hardAlpha" values="0 0 0 0 0 0 0 0 0 0 0 0 0 0 0 0 0 0 127 0" type="matrix" in="SourceAlpha"></feColorMatrix>
<feOffset dy="4"></feOffset>
<feGaussianBlur stdDeviation="2"></feGaussianBlur>
<feComposite k3="1" k2="-1" operator="arithmetic" in2="hardAlpha"></feComposite>
<feColorMatrix values="0 0 0 0 0.687696 0 0 0 0 0.977008 0 0 0 0 0.995475 0 0 0 1 0" type="matrix"></feColorMatrix>
<feBlend result="effect2_innerShadow_2838_212415" in2="effect1_innerShadow_2838_212415" mode="normal"></feBlend>
</filter>
<filter color-interpolation-filters="sRGB" filterUnits="userSpaceOnUse" height="282.998" width="490.554" y="-2.99805" x="402.001" id="filter1_ii_2838_212415">
<feFlood result="BackgroundImageFix" flood-opacity="0"></feFlood>
<feBlend result="shape" in2="BackgroundImageFix" in="SourceGraphic" mode="normal"></feBlend>
<feColorMatrix result="hardAlpha" values="0 0 0 0 0 0 0 0 0 0 0 0 0 0 0 0 0 0 127 0" type="matrix" in="SourceAlpha"></feColorMatrix>
<feOffset dy="-4"></feOffset>
<feGaussianBlur stdDeviation="2"></feGaussianBlur>
<feComposite k3="1" k2="-1" operator="arithmetic" in2="hardAlpha"></feComposite>
<feColorMatrix values="0 0 0 0 0 0 0 0 0 0 0 0 0 0 0 0 0 0 0.1 0" type="matrix"></feColorMatrix>
<feBlend result="effect1_innerShadow_2838_212415" in2="shape" mode="normal"></feBlend>
<feColorMatrix result="hardAlpha" values="0 0 0 0 0 0 0 0 0 0 0 0 0 0 0 0 0 0 127 0" type="matrix" in="SourceAlpha"></feColorMatrix>
<feOffset dy="4"></feOffset>
<feGaussianBlur stdDeviation="2"></feGaussianBlur>
<feComposite k3="1" k2="-1" operator="arithmetic" in2="hardAlpha"></feComposite>
<feColorMatrix values="0 0 0 0 0.687696 0 0 0 0 0.977008 0 0 0 0 0.995475 0 0 0 1 0" type="matrix"></feColorMatrix>
<feBlend result="effect2_innerShadow_2838_212415" in2="effect1_innerShadow_2838_212415" mode="normal"></feBlend>
</filter>
<clipPath id="clip0_2838_212415">
<rect fill="white" height="312" width="432"></rect>
</clipPath>
</defs>
</svg>
