<svg xmlns="http://www.w3.org/2000/svg" fill="none" viewBox="0 0 432 312" height="312" width="432">
<g clip-path="url(#clip0_2838_212448)">
<rect fill="white" height="312" width="432"></rect>
<g filter="url(#filter0_ii_2838_212448)">
<path fill="#69FC92" d="M159.754 36.0001C170.679 36.0001 179.153 26.5768 185.053 17.3813C191.375 7.52966 202.425 1.00195 215 1.00195C227.574 1.00195 238.624 7.52966 244.946 17.3813C250.847 26.5768 259.32 36.0001 270.246 36.0001H406C417.045 36.0001 426 44.9544 426 56.0001V100.559C426 111.389 435.265 119.818 444.347 125.72C454.103 132.059 460.555 143.054 460.555 155.556C460.555 168.058 454.103 179.053 444.347 185.392C435.265 191.293 426 199.722 426 210.553V256C426 267.046 417.045 276 406 276H24.9998C13.9541 276 4.99976 267.046 4.99976 256V210.802C4.99976 199.876 -4.42379 191.403 -13.6195 185.502C-23.4712 179.18 -29.999 168.13 -29.999 155.556C-29.999 142.981 -23.4712 131.931 -13.6195 125.609C-4.42379 119.709 4.99976 111.235 4.99976 100.309V56.0001C4.99976 44.9544 13.9541 36.0001 24.9998 36.0001H159.754Z" clip-rule="evenodd" fill-rule="evenodd"></path>
</g>
<path fill="#255036" d="M184.759 134.51V124.199H187.603V134.332C187.603 136.666 188.87 137.954 191.181 137.954C193.492 137.954 194.781 136.643 194.781 134.332V124.199H197.625V134.51C197.625 138.31 195.136 140.71 191.181 140.71C187.247 140.71 184.759 138.332 184.759 134.51ZM203.435 140.443H200.724V129.466H203.235L203.457 130.888C204.146 129.777 205.48 129.132 206.968 129.132C209.724 129.132 211.146 130.843 211.146 133.688V140.443H208.435V134.332C208.435 132.488 207.524 131.599 206.124 131.599C204.457 131.599 203.435 132.754 203.435 134.532V140.443ZM218.321 140.732C215.143 140.732 213.165 138.399 213.165 134.999C213.165 131.577 215.165 129.132 218.477 129.132C220.01 129.132 221.365 129.777 222.054 130.866V123.91H224.743V140.443H222.254L222.077 138.732C221.41 139.999 219.988 140.732 218.321 140.732ZM218.921 138.243C220.81 138.243 222.032 136.888 222.032 134.91C222.032 132.932 220.81 131.554 218.921 131.554C217.032 131.554 215.877 132.954 215.877 134.91C215.877 136.866 217.032 138.243 218.921 138.243ZM232.48 140.732C229.213 140.732 226.924 138.354 226.924 134.954C226.924 131.51 229.169 129.132 232.391 129.132C235.68 129.132 237.769 131.332 237.769 134.754V135.577L229.502 135.599C229.702 137.532 230.724 138.51 232.524 138.51C234.013 138.51 234.991 137.932 235.302 136.888H237.813C237.346 139.288 235.346 140.732 232.48 140.732ZM232.413 131.354C230.813 131.354 229.835 132.221 229.569 133.866H235.08C235.08 132.354 234.035 131.354 232.413 131.354ZM246.827 129.421V131.932H245.827C243.872 131.932 242.65 132.977 242.65 135.11V140.443H239.938V129.488H242.494L242.65 131.088C243.116 129.999 244.161 129.266 245.627 129.266C246.005 129.266 246.383 129.31 246.827 129.421Z"></path>
<path fill="#255036" d="M172.774 186.11L164.774 172.155V168.866H167.441C168.508 168.866 169.441 168.718 170.241 168.421C171.07 168.096 171.752 167.636 172.285 167.044C172.848 166.451 173.233 165.74 173.441 164.91H164.774V161.621H173.396C173.219 160.851 172.908 160.17 172.463 159.577C172.048 158.984 171.485 158.525 170.774 158.199C170.093 157.844 169.263 157.666 168.285 157.666H164.774V154.377H184.819V157.666H177.841C178.345 158.229 178.759 158.836 179.085 159.488C179.441 160.14 179.678 160.851 179.796 161.621H184.819V164.91H179.885C179.589 167.103 178.745 168.821 177.352 170.066C175.959 171.281 174.167 172.11 171.974 172.555L180.685 186.11H172.774ZM187.542 153.221H211.942V159.888L200.608 186.11H193.142L204.697 159.888H187.542V153.221ZM234.214 177.266L227.769 186.11H219.547L227.058 176.021C226.614 176.11 226.169 176.155 225.725 176.155C218.969 176.155 214.347 171.488 214.347 164.733C214.347 157.533 219.636 152.644 226.925 152.644C234.303 152.644 239.68 157.888 239.68 164.777C239.68 168.821 238.214 171.799 234.214 177.266ZM232.303 164.688C232.303 161.31 230.125 158.999 226.925 158.999C223.814 158.999 221.636 161.31 221.636 164.688C221.636 168.066 223.769 170.333 226.925 170.333C230.169 170.333 232.303 168.066 232.303 164.688ZM262.209 177.266L255.764 186.11H247.542L255.053 176.021C254.609 176.11 254.164 176.155 253.72 176.155C246.964 176.155 242.342 171.488 242.342 164.733C242.342 157.533 247.631 152.644 254.92 152.644C262.297 152.644 267.675 157.888 267.675 164.777C267.675 168.821 266.209 171.799 262.209 177.266ZM260.297 164.688C260.297 161.31 258.12 158.999 254.92 158.999C251.809 158.999 249.631 161.31 249.631 164.688C249.631 168.066 251.764 170.333 254.92 170.333C258.164 170.333 260.297 168.066 260.297 164.688Z"></path>
</g>
<defs>
<filter color-interpolation-filters="sRGB" filterUnits="userSpaceOnUse" height="282.998" width="490.554" y="-2.99805" x="-29.999" id="filter0_ii_2838_212448">
<feFlood result="BackgroundImageFix" flood-opacity="0"></feFlood>
<feBlend result="shape" in2="BackgroundImageFix" in="SourceGraphic" mode="normal"></feBlend>
<feColorMatrix result="hardAlpha" values="0 0 0 0 0 0 0 0 0 0 0 0 0 0 0 0 0 0 127 0" type="matrix" in="SourceAlpha"></feColorMatrix>
<feOffset dy="-4"></feOffset>
<feGaussianBlur stdDeviation="2"></feGaussianBlur>
<feComposite k3="1" k2="-1" operator="arithmetic" in2="hardAlpha"></feComposite>
<feColorMatrix values="0 0 0 0 0 0 0 0 0 0 0 0 0 0 0 0 0 0 0.1 0" type="matrix"></feColorMatrix>
<feBlend result="effect1_innerShadow_2838_212448" in2="shape" mode="normal"></feBlend>
<feColorMatrix result="hardAlpha" values="0 0 0 0 0 0 0 0 0 0 0 0 0 0 0 0 0 0 127 0" type="matrix" in="SourceAlpha"></feColorMatrix>
<feOffset dy="4"></feOffset>
<feGaussianBlur stdDeviation="2"></feGaussianBlur>
<feComposite k3="1" k2="-1" operator="arithmetic" in2="hardAlpha"></feComposite>
<feColorMatrix values="0 0 0 0 0.687696 0 0 0 0 0.977008 0 0 0 0 0.995475 0 0 0 1 0" type="matrix"></feColorMatrix>
<feBlend result="effect2_innerShadow_2838_212448" in2="effect1_innerShadow_2838_212448" mode="normal"></feBlend>
</filter>
<clipPath id="clip0_2838_212448">
<rect fill="white" height="312" width="432"></rect>
</clipPath>
</defs>
</svg>
