<svg xmlns="http://www.w3.org/2000/svg" fill="none" viewBox="0 0 432 312" height="312" width="432">
<g clip-path="url(#clip0_2838_212481)">
<rect fill="white" height="312" width="432"></rect>
<g filter="url(#filter0_ii_2838_212481)">
<path fill="#69FC92" d="M-272.246 36.0001C-261.321 36.0001 -252.847 26.5768 -246.947 17.3813C-240.625 7.52966 -229.575 1.00195 -217 1.00195C-204.426 1.00195 -193.376 7.52966 -187.054 17.3813C-181.153 26.5768 -172.68 36.0001 -161.754 36.0001H-26.0002C-14.9545 36.0001 -6.00024 44.9544 -6.00024 56.0001V100.559C-6.00024 111.389 3.26462 119.818 12.3466 125.72C22.1029 132.059 28.5554 143.054 28.5554 155.556C28.5554 168.058 22.1029 179.053 12.3465 185.392C3.26462 191.293 -6.00024 199.722 -6.00024 210.553V256C-6.00024 267.046 -14.9545 276 -26.0002 276H-407C-418.046 276 -427 267.046 -427 256V210.802C-427 199.876 -436.424 191.403 -445.619 185.502C-455.471 179.18 -461.999 168.13 -461.999 155.556C-461.999 142.981 -455.471 131.931 -445.619 125.609C-436.424 119.709 -427 111.235 -427 100.309V56.0001C-427 44.9544 -418.046 36.0001 -407 36.0001H-272.246Z" clip-rule="evenodd" fill-rule="evenodd"></path>
</g>
<g filter="url(#filter1_ii_2838_212481)">
<path fill="#FDDA5D" d="M221 71.5551C233.665 71.5551 244.783 64.9333 251.082 54.9631C256.981 45.6248 265.51 36 276.555 36H412C423.046 36 432 44.9543 432 56V95.9985C432 107.044 422.375 115.573 413.037 121.472C403.066 127.771 396.444 138.889 396.444 151.554C396.444 164.219 403.066 175.337 413.037 181.636C422.375 187.535 432 196.064 432 207.11V256C432 267.046 423.046 276 412 276H276.555C265.51 276 256.981 285.625 251.082 294.963C244.783 304.933 233.665 311.555 221 311.555C208.335 311.555 197.217 304.933 190.918 294.963C185.019 285.625 176.49 276 165.445 276H31C19.9543 276 11 267.046 11 256V211.554C11 200.508 20.625 191.979 29.9634 186.08C39.9337 179.782 46.5556 168.663 46.5556 155.998C46.5556 143.333 39.9337 132.215 29.9634 125.917C20.625 120.017 11 111.489 11 100.443L11 56C11 44.9543 19.9543 36 31 36H165.445C176.49 36 185.019 45.6248 190.918 54.9631C197.217 64.9333 208.335 71.5551 221 71.5551Z" clip-rule="evenodd" fill-rule="evenodd"></path>
</g>
<path fill="#54502A" d="M190.759 134.51V124.199H193.603V134.332C193.603 136.666 194.87 137.954 197.181 137.954C199.492 137.954 200.781 136.643 200.781 134.332V124.199H203.626V134.51C203.626 138.31 201.137 140.71 197.181 140.71C193.248 140.71 190.759 138.332 190.759 134.51ZM209.436 140.443H206.724V129.466H209.236L209.458 130.888C210.147 129.777 211.48 129.132 212.969 129.132C215.724 129.132 217.147 130.843 217.147 133.688V140.443H214.436V134.332C214.436 132.488 213.524 131.599 212.124 131.599C210.458 131.599 209.436 132.754 209.436 134.532V140.443ZM224.322 140.732C221.144 140.732 219.166 138.399 219.166 134.999C219.166 131.577 221.166 129.132 224.477 129.132C226.01 129.132 227.366 129.777 228.055 130.866V123.91H230.744V140.443H228.255L228.077 138.732C227.41 139.999 225.988 140.732 224.322 140.732ZM224.922 138.243C226.81 138.243 228.033 136.888 228.033 134.91C228.033 132.932 226.81 131.554 224.922 131.554C223.033 131.554 221.877 132.954 221.877 134.91C221.877 136.866 223.033 138.243 224.922 138.243ZM238.48 140.732C235.214 140.732 232.925 138.354 232.925 134.954C232.925 131.51 235.169 129.132 238.391 129.132C241.68 129.132 243.769 131.332 243.769 134.754V135.577L235.502 135.599C235.702 137.532 236.725 138.51 238.525 138.51C240.014 138.51 240.991 137.932 241.302 136.888H243.814C243.347 139.288 241.347 140.732 238.48 140.732ZM238.414 131.354C236.814 131.354 235.836 132.221 235.569 133.866H241.08C241.08 132.354 240.036 131.354 238.414 131.354ZM252.828 129.421V131.932H251.828C249.872 131.932 248.65 132.977 248.65 135.11V140.443H245.939V129.488H248.494L248.65 131.088C249.117 129.999 250.161 129.266 251.628 129.266C252.006 129.266 252.383 129.31 252.828 129.421Z"></path>
<path fill="#54502A" d="M177.624 186.11L169.624 172.155V168.866H172.291C173.357 168.866 174.291 168.718 175.091 168.421C175.92 168.096 176.602 167.636 177.135 167.044C177.698 166.451 178.083 165.74 178.291 164.91H169.624V161.621H178.246C178.068 160.851 177.757 160.17 177.313 159.577C176.898 158.984 176.335 158.525 175.624 158.199C174.943 157.844 174.113 157.666 173.135 157.666H169.624V154.377H189.668V157.666H182.691C183.194 158.229 183.609 158.836 183.935 159.488C184.291 160.14 184.528 160.851 184.646 161.621H189.668V164.91H184.735C184.439 167.103 183.594 168.821 182.202 170.066C180.809 171.281 179.017 172.11 176.824 172.555L185.535 186.11H177.624ZM213.369 177.266L206.925 186.11H198.702L206.214 176.021C205.769 176.11 205.325 176.155 204.88 176.155C198.125 176.155 193.502 171.488 193.502 164.733C193.502 157.533 198.791 152.644 206.08 152.644C213.458 152.644 218.836 157.888 218.836 164.777C218.836 168.821 217.369 171.799 213.369 177.266ZM211.458 164.688C211.458 161.31 209.28 158.999 206.08 158.999C202.969 158.999 200.791 161.31 200.791 164.688C200.791 168.066 202.925 170.333 206.08 170.333C209.325 170.333 211.458 168.066 211.458 164.688ZM241.364 177.266L234.92 186.11H226.697L234.208 176.021C233.764 176.11 233.32 176.155 232.875 176.155C226.12 176.155 221.497 171.488 221.497 164.733C221.497 157.533 226.786 152.644 234.075 152.644C241.453 152.644 246.831 157.888 246.831 164.777C246.831 168.821 245.364 171.799 241.364 177.266ZM239.453 164.688C239.453 161.31 237.275 158.999 234.075 158.999C230.964 158.999 228.786 161.31 228.786 164.688C228.786 168.066 230.92 170.333 234.075 170.333C237.32 170.333 239.453 168.066 239.453 164.688ZM269.359 177.266L262.914 186.11H254.692L262.203 176.021C261.759 176.11 261.314 176.155 260.87 176.155C254.114 176.155 249.492 171.488 249.492 164.733C249.492 157.533 254.781 152.644 262.07 152.644C269.448 152.644 274.825 157.888 274.825 164.777C274.825 168.821 273.359 171.799 269.359 177.266ZM267.448 164.688C267.448 161.31 265.27 158.999 262.07 158.999C258.959 158.999 256.781 161.31 256.781 164.688C256.781 168.066 258.914 170.333 262.07 170.333C265.314 170.333 267.448 168.066 267.448 164.688Z"></path>
</g>
<defs>
<filter color-interpolation-filters="sRGB" filterUnits="userSpaceOnUse" height="282.998" width="490.554" y="-2.99805" x="-461.999" id="filter0_ii_2838_212481">
<feFlood result="BackgroundImageFix" flood-opacity="0"></feFlood>
<feBlend result="shape" in2="BackgroundImageFix" in="SourceGraphic" mode="normal"></feBlend>
<feColorMatrix result="hardAlpha" values="0 0 0 0 0 0 0 0 0 0 0 0 0 0 0 0 0 0 127 0" type="matrix" in="SourceAlpha"></feColorMatrix>
<feOffset dy="-4"></feOffset>
<feGaussianBlur stdDeviation="2"></feGaussianBlur>
<feComposite k3="1" k2="-1" operator="arithmetic" in2="hardAlpha"></feComposite>
<feColorMatrix values="0 0 0 0 0 0 0 0 0 0 0 0 0 0 0 0 0 0 0.1 0" type="matrix"></feColorMatrix>
<feBlend result="effect1_innerShadow_2838_212481" in2="shape" mode="normal"></feBlend>
<feColorMatrix result="hardAlpha" values="0 0 0 0 0 0 0 0 0 0 0 0 0 0 0 0 0 0 127 0" type="matrix" in="SourceAlpha"></feColorMatrix>
<feOffset dy="4"></feOffset>
<feGaussianBlur stdDeviation="2"></feGaussianBlur>
<feComposite k3="1" k2="-1" operator="arithmetic" in2="hardAlpha"></feComposite>
<feColorMatrix values="0 0 0 0 0.687696 0 0 0 0 0.977008 0 0 0 0 0.995475 0 0 0 1 0" type="matrix"></feColorMatrix>
<feBlend result="effect2_innerShadow_2838_212481" in2="effect1_innerShadow_2838_212481" mode="normal"></feBlend>
</filter>
<filter color-interpolation-filters="sRGB" filterUnits="userSpaceOnUse" height="283.555" width="421" y="32" x="11" id="filter1_ii_2838_212481">
<feFlood result="BackgroundImageFix" flood-opacity="0"></feFlood>
<feBlend result="shape" in2="BackgroundImageFix" in="SourceGraphic" mode="normal"></feBlend>
<feColorMatrix result="hardAlpha" values="0 0 0 0 0 0 0 0 0 0 0 0 0 0 0 0 0 0 127 0" type="matrix" in="SourceAlpha"></feColorMatrix>
<feOffset dy="-4"></feOffset>
<feGaussianBlur stdDeviation="2"></feGaussianBlur>
<feComposite k3="1" k2="-1" operator="arithmetic" in2="hardAlpha"></feComposite>
<feColorMatrix values="0 0 0 0 0 0 0 0 0 0 0 0 0 0 0 0 0 0 0.1 0" type="matrix"></feColorMatrix>
<feBlend result="effect1_innerShadow_2838_212481" in2="shape" mode="normal"></feBlend>
<feColorMatrix result="hardAlpha" values="0 0 0 0 0 0 0 0 0 0 0 0 0 0 0 0 0 0 127 0" type="matrix" in="SourceAlpha"></feColorMatrix>
<feOffset dy="4"></feOffset>
<feGaussianBlur stdDeviation="2"></feGaussianBlur>
<feComposite k3="1" k2="-1" operator="arithmetic" in2="hardAlpha"></feComposite>
<feColorMatrix values="0 0 0 0 0.999278 0 0 0 0 0.962479 0 0 0 0 0.631288 0 0 0 1 0" type="matrix"></feColorMatrix>
<feBlend result="effect2_innerShadow_2838_212481" in2="effect1_innerShadow_2838_212481" mode="normal"></feBlend>
</filter>
<clipPath id="clip0_2838_212481">
<rect fill="white" height="312" width="432"></rect>
</clipPath>
</defs>
</svg>
