<svg xmlns="http://www.w3.org/2000/svg" xmlns:xlink="http://www.w3.org/1999/xlink" width="500" zoomAndPan="magnify" viewBox="0 0 375 374.999991" height="500" preserveAspectRatio="xMidYMid meet" version="1.0"><defs><g/><clipPath id="299adb8745"><path d="M 64 138 L 174.757812 138 L 174.757812 262.5 L 64 262.5 Z M 64 138 " clip-rule="nonzero"/></clipPath><clipPath id="166ec45c96"><path d="M 46.507812 143 L 79 143 L 79 262 L 46.507812 262 Z M 46.507812 143 " clip-rule="nonzero"/></clipPath></defs><g clip-path="url(#299adb8745)"><path fill="#4d3e3e" d="M 174.6875 229.828125 C 167.425781 232.894531 160.125 235.851562 152.816406 238.785156 L 141.835938 243.136719 C 140.003906 243.855469 138.191406 244.632812 136.308594 245.199219 C 134.433594 245.777344 132.546875 246.332031 130.683594 246.957031 L 85.847656 261.519531 L 82.828125 262.5 L 82.351562 259.359375 L 65.089844 145.183594 L 64.652344 142.289062 L 67.574219 142.09375 L 114.136719 138.945312 L 119.957031 138.542969 C 121.894531 138.375 123.828125 138.167969 125.78125 138.21875 L 137.476562 138.230469 C 145.273438 138.25 153.074219 138.335938 160.878906 138.488281 C 153.164062 139.6875 145.445312 140.824219 137.722656 141.890625 L 126.136719 143.476562 C 124.207031 143.789062 122.261719 143.84375 120.320312 143.9375 L 114.5 144.320312 L 67.9375 147.46875 L 70.417969 144.378906 L 87.679688 258.554688 L 84.183594 256.394531 L 129.019531 241.828125 C 130.894531 241.238281 132.742188 240.578125 134.605469 239.945312 C 136.457031 239.296875 138.382812 238.863281 140.285156 238.367188 L 151.726562 235.433594 C 159.363281 233.515625 167.007812 231.617188 174.6875 229.828125 " fill-opacity="1" fill-rule="nonzero"/></g><path fill="#4d3e3e" d="M 92.472656 163.351562 L 89.160156 141.449219 C 88.167969 134.871094 89.8125 128.390625 93.796875 123.207031 C 97.78125 118.015625 103.625 114.746094 110.25 114.007812 C 123.8125 112.496094 136.511719 122.242188 138.554688 135.730469 L 141.863281 157.632812 L 136.535156 158.4375 L 133.222656 136.535156 C 131.613281 125.871094 121.585938 118.164062 110.84375 119.363281 C 105.691406 119.941406 101.15625 122.46875 98.070312 126.488281 C 94.988281 130.5 93.714844 135.527344 94.492188 140.644531 L 97.800781 162.546875 L 92.472656 163.351562 " fill-opacity="1" fill-rule="nonzero"/><path fill="#4d3e3e" d="M 132.242188 158.8125 C 132.820312 162.632812 136.402344 165.382812 140.246094 164.953125 C 144.089844 164.523438 146.738281 161.078125 146.160156 157.257812 C 145.582031 153.4375 141.996094 150.6875 138.152344 151.117188 C 134.3125 151.542969 131.664062 154.988281 132.242188 158.8125 " fill-opacity="1" fill-rule="nonzero"/><path fill="#4d3e3e" d="M 88.179688 163.726562 C 88.753906 167.546875 92.339844 170.296875 96.183594 169.867188 C 100.027344 169.4375 102.675781 165.992188 102.097656 162.171875 C 101.519531 158.351562 97.933594 155.601562 94.089844 156.03125 C 90.246094 156.460938 87.601562 159.902344 88.179688 163.726562 " fill-opacity="1" fill-rule="nonzero"/><g clip-path="url(#166ec45c96)"><path fill="#4d3e3e" d="M 60.15625 143.996094 C 60.394531 146.339844 60.582031 148.683594 60.734375 151.019531 C 60.914062 153.359375 61.019531 155.691406 61.140625 158.023438 C 61.179688 159.191406 61.300781 160.363281 61.273438 161.523438 C 61.253906 162.101562 61.132812 162.667969 61.0625 163.242188 C 60.984375 163.816406 60.9375 164.390625 60.882812 164.96875 L 60.230469 171.875 L 57.625 199.5 L 52.410156 254.746094 L 48.390625 252.15625 C 48.84375 251.90625 49.140625 251.765625 49.507812 251.59375 C 49.859375 251.429688 50.207031 251.277344 50.558594 251.132812 C 51.261719 250.84375 51.96875 250.589844 52.6875 250.359375 C 54.125 249.917969 55.585938 249.535156 57.085938 249.265625 C 58.597656 249.054688 60.148438 249.1875 61.660156 249.363281 C 63.175781 249.566406 64.667969 249.914062 66.09375 250.410156 C 68.960938 251.394531 71.511719 253.054688 73.570312 255.054688 C 75.640625 257.0625 77.25 259.402344 78.492188 261.855469 C 76.636719 259.820312 74.542969 258.054688 72.300781 256.707031 C 70.046875 255.367188 67.597656 254.546875 65.15625 254.230469 C 63.929688 254.082031 62.703125 254.0625 61.488281 254.160156 C 60.273438 254.238281 59.085938 254.539062 57.894531 254.726562 C 56.695312 254.855469 55.492188 255.109375 54.328125 255.492188 C 53.746094 255.679688 53.167969 255.886719 52.605469 256.117188 C 52.328125 256.230469 52.046875 256.351562 51.78125 256.480469 C 51.527344 256.59375 51.214844 256.753906 51.066406 256.835938 L 46.566406 259.3125 L 47.046875 254.242188 L 52.261719 198.992188 L 54.867188 171.367188 L 55.519531 164.460938 C 55.570312 163.886719 55.632812 163.3125 55.664062 162.734375 C 55.703125 162.15625 55.691406 161.574219 55.777344 161.003906 C 55.96875 159.859375 56.308594 158.730469 56.566406 157.59375 C 57.121094 155.324219 57.660156 153.050781 58.273438 150.785156 C 58.859375 148.519531 59.484375 146.253906 60.15625 143.996094 " fill-opacity="1" fill-rule="nonzero"/></g><g fill="#4d3e3e" fill-opacity="1"><g transform="translate(141.066938, 197.999987)"><g><path d="M 23.375 -11.359375 C 23.59375 -11.210938 23.628906 -11.023438 23.484375 -10.796875 C 22.453125 -9.441406 21.144531 -8.117188 19.5625 -6.828125 C 17.988281 -5.546875 16.265625 -4.242188 14.390625 -2.921875 C 13.835938 0.535156 13.191406 3.851562 12.453125 7.03125 C 11.722656 10.207031 10.925781 13.035156 10.0625 15.515625 C 9.195312 17.992188 8.234375 19.929688 7.171875 21.328125 C 5.367188 23.578125 3.640625 24.882812 1.984375 25.25 C 1.578125 25.320312 1.191406 25.382812 0.828125 25.4375 C 0.460938 25.488281 0.09375 25.515625 -0.28125 25.515625 C -1.226562 25.515625 -2.0625 25.382812 -2.78125 25.125 C -3.5 24.875 -4.097656 24.601562 -4.578125 24.3125 C -5.304688 23.789062 -5.898438 23.226562 -6.359375 22.625 C -6.828125 22.019531 -7.113281 21.5 -7.21875 21.0625 C -7.4375 20.320312 -7.492188 19.550781 -7.390625 18.75 C -7.097656 16.757812 -6.414062 14.875 -5.34375 13.09375 C -4.28125 11.3125 -2.957031 9.628906 -1.375 8.046875 C 0.207031 6.460938 1.953125 4.953125 3.859375 3.515625 C 5.765625 2.085938 7.675781 0.710938 9.59375 -0.609375 C 9.882812 -2.335938 10.15625 -4.070312 10.40625 -5.8125 C 10.664062 -7.5625 10.910156 -9.222656 11.140625 -10.796875 C 10.441406 -9.773438 9.566406 -8.59375 8.515625 -7.25 C 7.472656 -5.90625 6.378906 -4.832031 5.234375 -4.03125 C 5.203125 -4.03125 5.1875 -4.007812 5.1875 -3.96875 L 5.125 -3.96875 C 4.71875 -3.675781 4.3125 -3.457031 3.90625 -3.3125 C 3.65625 -3.195312 3.378906 -3.101562 3.078125 -3.03125 C 2.785156 -2.957031 2.476562 -2.921875 2.15625 -2.921875 C 1.269531 -2.921875 0.550781 -3.175781 0 -3.6875 C -1.25 -4.832031 -1.394531 -6.875 -0.4375 -9.8125 C 0.289062 -12.125 1.222656 -13.976562 2.359375 -15.375 C 3.503906 -16.769531 4.628906 -17.769531 5.734375 -18.375 C 6.835938 -18.988281 7.703125 -19.222656 8.328125 -19.078125 C 9.535156 -18.859375 10.488281 -17.992188 11.1875 -16.484375 L 11.296875 -16.265625 L 11.625 -15.21875 C 11.78125 -16.394531 11.898438 -17.476562 11.984375 -18.46875 C 12.078125 -19.457031 12.144531 -20.300781 12.1875 -21 C 12.257812 -21.8125 12.644531 -22.328125 13.34375 -22.546875 C 14.144531 -22.804688 14.769531 -22.640625 15.21875 -22.046875 L 15.375 -21.890625 C 16.257812 -20.859375 16.609375 -19.40625 16.421875 -17.53125 C 16.171875 -15.394531 15.894531 -13.175781 15.59375 -10.875 C 15.300781 -8.582031 14.972656 -6.300781 14.609375 -4.03125 C 16.335938 -5.238281 17.90625 -6.4375 19.3125 -7.625 C 20.726562 -8.820312 21.898438 -10.046875 22.828125 -11.296875 C 22.972656 -11.484375 23.15625 -11.503906 23.375 -11.359375 Z M 3.6875 19.90625 C 4.457031 18.800781 5.179688 17.253906 5.859375 15.265625 C 6.546875 13.285156 7.179688 11.015625 7.765625 8.453125 C 8.359375 5.898438 8.894531 3.265625 9.375 0.546875 C 6.945312 2.242188 4.570312 4.023438 2.25 5.890625 C -0.0625 7.765625 -2.023438 9.769531 -3.640625 11.90625 C -5.253906 14.039062 -6.226562 16.359375 -6.5625 18.859375 C -6.664062 19.515625 -6.628906 20.175781 -6.453125 20.84375 L -6.390625 20.890625 C -6.242188 21.441406 -5.929688 21.957031 -5.453125 22.4375 C -4.390625 23.394531 -3.066406 23.707031 -1.484375 23.375 C -1.003906 23.300781 -0.242188 23.015625 0.796875 22.515625 C 1.847656 22.023438 2.8125 21.15625 3.6875 19.90625 Z M 11.25 -12.5625 C 11.25 -12.5625 11.25 -12.570312 11.25 -12.59375 C 11.25 -12.613281 11.265625 -12.625 11.296875 -12.625 C 11.222656 -12.695312 11.1875 -12.769531 11.1875 -12.84375 C 11.15625 -13.507812 11.070312 -14.113281 10.9375 -14.65625 C 10.8125 -15.207031 10.65625 -15.707031 10.46875 -16.15625 C 10.320312 -16.40625 10.070312 -16.628906 9.71875 -16.828125 C 9.375 -17.035156 9.035156 -17.101562 8.703125 -17.03125 C 8.484375 -17 8.078125 -16.695312 7.484375 -16.125 C 6.898438 -15.550781 6.269531 -14.734375 5.59375 -13.671875 C 4.914062 -12.609375 4.316406 -11.34375 3.796875 -9.875 C 3.328125 -8.507812 3.109375 -7.359375 3.140625 -6.421875 C 3.179688 -5.484375 3.363281 -4.867188 3.6875 -4.578125 C 3.914062 -4.359375 4.265625 -4.394531 4.734375 -4.6875 C 5.660156 -5.3125 6.550781 -6.144531 7.40625 -7.1875 C 8.269531 -8.238281 9.050781 -9.269531 9.75 -10.28125 C 10.445312 -11.289062 10.945312 -12.050781 11.25 -12.5625 Z M 11.25 -12.5625 "/></g></g></g><g fill="#4d3e3e" fill-opacity="1"><g transform="translate(162.455101, 197.999987)"><g><path d="M 15.375 -11.40625 C 15.59375 -11.257812 15.648438 -11.078125 15.546875 -10.859375 C 15.503906 -10.742188 15.242188 -10.238281 14.765625 -9.34375 C 14.296875 -8.445312 13.679688 -7.34375 12.921875 -6.03125 C 12.171875 -4.726562 11.34375 -3.414062 10.4375 -2.09375 C 9.539062 -0.769531 8.613281 0.332031 7.65625 1.21875 C 7.03125 1.800781 6.460938 2.238281 5.953125 2.53125 C 5.515625 2.75 4.984375 2.859375 4.359375 2.859375 C 3.878906 2.859375 3.363281 2.769531 2.8125 2.59375 C 2.445312 2.445312 2.039062 2.1875 1.59375 1.8125 C 1.15625 1.445312 0.789062 0.898438 0.5 0.171875 C -0.570312 -2.804688 -0.59375 -7.695312 0.4375 -14.5 C 1.175781 -19.3125 2.085938 -23.65625 3.171875 -27.53125 C 4.253906 -31.40625 5.445312 -34.59375 6.75 -37.09375 C 8.050781 -39.59375 9.382812 -41.210938 10.75 -41.953125 C 11.78125 -42.460938 12.753906 -42.5 13.671875 -42.0625 C 14.515625 -41.65625 15.007812 -40.9375 15.15625 -39.90625 L 15.21875 -39.859375 C 15.4375 -38.710938 15.351562 -37.265625 14.96875 -35.515625 C 14.582031 -33.773438 13.992188 -31.894531 13.203125 -29.875 C 12.410156 -27.851562 11.5 -25.832031 10.46875 -23.8125 C 9.445312 -21.789062 8.398438 -19.929688 7.328125 -18.234375 C 6.265625 -16.546875 5.253906 -15.191406 4.296875 -14.171875 C 4.296875 -14.128906 4.28125 -14.109375 4.25 -14.109375 C 3.800781 -11.203125 3.53125 -8.8125 3.4375 -6.9375 C 3.351562 -5.070312 3.390625 -3.585938 3.546875 -2.484375 C 3.710938 -1.378906 3.929688 -0.566406 4.203125 -0.046875 C 4.484375 0.460938 4.753906 0.8125 5.015625 1 C 5.492188 1.25 5.960938 1.242188 6.421875 0.984375 C 6.878906 0.734375 7.109375 0.609375 7.109375 0.609375 L 7.171875 0.609375 C 8.046875 -0.273438 8.929688 -1.367188 9.828125 -2.671875 C 10.734375 -3.972656 11.5625 -5.273438 12.3125 -6.578125 C 13.070312 -7.890625 13.679688 -8.984375 14.140625 -9.859375 C 14.597656 -10.742188 14.828125 -11.1875 14.828125 -11.1875 C 14.972656 -11.445312 15.15625 -11.519531 15.375 -11.40625 Z M 4.84375 -17.53125 L 4.515625 -15.65625 C 5.398438 -16.789062 6.335938 -18.175781 7.328125 -19.8125 C 8.316406 -21.445312 9.269531 -23.203125 10.1875 -25.078125 C 11.113281 -26.953125 11.925781 -28.816406 12.625 -30.671875 C 13.320312 -32.523438 13.832031 -34.242188 14.15625 -35.828125 C 14.488281 -37.410156 14.566406 -38.695312 14.390625 -39.6875 C 14.316406 -39.976562 14.113281 -40.109375 13.78125 -40.078125 C 13.34375 -40.078125 12.773438 -39.726562 12.078125 -39.03125 C 11.378906 -38.332031 10.625 -37.144531 9.8125 -35.46875 C 9 -33.800781 8.160156 -31.503906 7.296875 -28.578125 C 6.441406 -25.660156 5.625 -21.976562 4.84375 -17.53125 Z M 4.84375 -17.53125 "/></g></g></g><g fill="#4d3e3e" fill-opacity="1"><g transform="translate(175.960404, 197.999987)"><g><path d="M 20.015625 -11.40625 C 20.191406 -11.375 20.316406 -11.210938 20.390625 -10.921875 C 20.390625 -10.921875 20.296875 -10.539062 20.109375 -9.78125 C 19.929688 -9.03125 19.695312 -8.082031 19.40625 -6.9375 C 19.113281 -5.800781 18.765625 -4.609375 18.359375 -3.359375 C 16.671875 1.566406 14.976562 4.03125 13.28125 4.03125 L 13.0625 4.03125 C 12.144531 3.914062 11.410156 3.378906 10.859375 2.421875 C 10.378906 1.578125 10.035156 0.550781 9.828125 -0.65625 C 9.628906 -1.875 9.53125 -3.132812 9.53125 -4.4375 C 9.53125 -5.738281 9.566406 -6.925781 9.640625 -8 C 9.390625 -7.300781 9.109375 -6.679688 8.796875 -6.140625 C 8.484375 -5.609375 8.179688 -5.125 7.890625 -4.6875 C 7.890625 -4.644531 7.878906 -4.625 7.859375 -4.625 C 7.835938 -4.625 7.828125 -4.609375 7.828125 -4.578125 C 7.710938 -4.535156 7.640625 -4.460938 7.609375 -4.359375 C 6.941406 -3.441406 6.269531 -2.785156 5.59375 -2.390625 C 4.914062 -2.003906 4.265625 -1.8125 3.640625 -1.8125 C 3.378906 -1.8125 3.175781 -1.832031 3.03125 -1.875 C 2.8125 -1.945312 2.453125 -2.09375 1.953125 -2.3125 C 1.460938 -2.53125 0.992188 -2.972656 0.546875 -3.640625 C 0.179688 -4.296875 -0.109375 -5.285156 -0.328125 -6.609375 C -0.546875 -7.929688 -0.378906 -9.734375 0.171875 -12.015625 C 0.679688 -13.859375 1.296875 -15.3125 2.015625 -16.375 C 2.734375 -17.4375 3.457031 -18.242188 4.1875 -18.796875 C 4.925781 -19.347656 5.550781 -19.71875 6.0625 -19.90625 C 7.238281 -20.34375 8.269531 -20.378906 9.15625 -20.015625 C 10.21875 -19.492188 10.914062 -18.554688 11.25 -17.203125 L 11.25 -17.09375 C 11.570312 -18.300781 11.9375 -19.421875 12.34375 -20.453125 C 12.75 -21.484375 13.132812 -22.363281 13.5 -23.09375 C 13.757812 -23.425781 14.070312 -23.613281 14.4375 -23.65625 C 14.882812 -23.65625 15.253906 -23.503906 15.546875 -23.203125 L 16.375 -22.4375 C 16.8125 -22.070312 17.09375 -21.628906 17.21875 -21.109375 C 17.351562 -20.597656 17.328125 -20.117188 17.140625 -19.671875 C 16.335938 -17.765625 15.613281 -15.609375 14.96875 -13.203125 C 14.320312 -10.796875 13.851562 -8.398438 13.5625 -6.015625 C 13.195312 -3.328125 13.09375 -1.382812 13.25 -0.1875 C 13.414062 1 13.59375 1.648438 13.78125 1.765625 C 14.1875 1.984375 14.546875 1.953125 14.859375 1.671875 C 15.171875 1.398438 15.398438 1.191406 15.546875 1.046875 C 16.097656 0.0546875 16.628906 -1.144531 17.140625 -2.5625 C 17.660156 -3.976562 18.117188 -5.445312 18.515625 -6.96875 C 18.921875 -8.5 19.253906 -9.90625 19.515625 -11.1875 C 19.585938 -11.40625 19.753906 -11.476562 20.015625 -11.40625 Z M 10.75 -14.890625 C 10.75 -15.660156 10.65625 -16.359375 10.46875 -16.984375 C 10.363281 -17.273438 10.179688 -17.554688 9.921875 -17.828125 C 9.660156 -18.109375 9.382812 -18.265625 9.09375 -18.296875 C 8.832031 -18.335938 8.410156 -18.203125 7.828125 -17.890625 C 7.242188 -17.578125 6.640625 -16.921875 6.015625 -15.921875 C 5.390625 -14.929688 4.875 -13.445312 4.46875 -11.46875 C 4.019531 -9.375 3.804688 -7.820312 3.828125 -6.8125 C 3.847656 -5.800781 3.976562 -5.140625 4.21875 -4.828125 C 4.457031 -4.515625 4.648438 -4.300781 4.796875 -4.1875 C 5.015625 -4.039062 5.351562 -4.015625 5.8125 -4.109375 C 6.269531 -4.203125 6.722656 -4.539062 7.171875 -5.125 C 8.191406 -6.59375 9.179688 -8.722656 10.140625 -11.515625 C 10.210938 -12.109375 10.296875 -12.679688 10.390625 -13.234375 C 10.484375 -13.785156 10.601562 -14.335938 10.75 -14.890625 Z M 10.75 -14.890625 "/></g></g></g><g fill="#4d3e3e" fill-opacity="1"><g transform="translate(194.316694, 197.999987)"><g><path d="M 27.734375 -11.40625 C 27.953125 -11.257812 27.988281 -11.078125 27.84375 -10.859375 C 26.445312 -8.285156 25.175781 -6.503906 24.03125 -5.515625 L 24.03125 -5.453125 C 23 -4.316406 21.820312 -3.75 20.5 -3.75 C 20.25 -3.75 20.066406 -3.765625 19.953125 -3.796875 C 19.585938 -3.867188 19.15625 -4.039062 18.65625 -4.3125 C 18.164062 -4.59375 17.769531 -5.117188 17.46875 -5.890625 C 17.101562 -6.742188 16.929688 -7.820312 16.953125 -9.125 C 16.972656 -10.425781 17.097656 -11.753906 17.328125 -13.109375 C 17.566406 -14.472656 17.832031 -15.707031 18.125 -16.8125 C 18.425781 -17.914062 18.648438 -18.6875 18.796875 -19.125 C 19.015625 -19.675781 19.113281 -20.109375 19.09375 -20.421875 C 19.082031 -20.734375 19.019531 -20.945312 18.90625 -21.0625 C 18.875 -21.132812 18.828125 -21.160156 18.765625 -21.140625 C 18.710938 -21.117188 18.664062 -21.109375 18.625 -21.109375 L 18.578125 -21.0625 C 18.097656 -20.800781 17.507812 -20.3125 16.8125 -19.59375 C 16.113281 -18.875 15.414062 -18.046875 14.71875 -17.109375 C 14.019531 -16.171875 13.40625 -15.1875 12.875 -14.15625 C 12.34375 -13.132812 11.984375 -12.144531 11.796875 -11.1875 C 11.796875 -11.15625 11.785156 -11.128906 11.765625 -11.109375 C 11.742188 -11.085938 11.734375 -11.078125 11.734375 -11.078125 C 11.703125 -10.378906 11.703125 -9.644531 11.734375 -8.875 C 11.734375 -8.507812 11.585938 -8.140625 11.296875 -7.765625 C 11.148438 -7.617188 10.96875 -7.5 10.75 -7.40625 C 10.53125 -7.320312 10.3125 -7.296875 10.09375 -7.328125 C 9.46875 -7.328125 8.953125 -7.53125 8.546875 -7.9375 C 8.140625 -8.414062 7.9375 -8.929688 7.9375 -9.484375 C 7.976562 -10.765625 8.125 -12.128906 8.375 -13.578125 C 8.632812 -15.035156 8.910156 -16.367188 9.203125 -17.578125 C 9.492188 -18.796875 9.71875 -19.644531 9.875 -20.125 C 10.019531 -20.5625 10.070312 -20.878906 10.03125 -21.078125 C 10 -21.285156 9.945312 -21.40625 9.875 -21.4375 C 9.757812 -21.550781 9.664062 -21.515625 9.59375 -21.328125 L 9.53125 -21.328125 C 8.757812 -20.484375 8 -19.363281 7.25 -17.96875 C 6.5 -16.570312 5.8125 -15.09375 5.1875 -13.53125 C 4.5625 -11.96875 4.046875 -10.476562 3.640625 -9.0625 C 3.234375 -7.65625 2.992188 -6.507812 2.921875 -5.625 C 2.878906 -5.101562 2.859375 -4.554688 2.859375 -3.984375 C 2.859375 -3.421875 2.859375 -2.863281 2.859375 -2.3125 C 2.859375 -1.90625 2.710938 -1.554688 2.421875 -1.265625 C 2.171875 -1.085938 1.894531 -1 1.59375 -1 C 1.488281 -1 1.398438 -1.015625 1.328125 -1.046875 C 0.804688 -1.160156 0.378906 -1.425781 0.046875 -1.84375 C -0.273438 -2.269531 -0.457031 -2.738281 -0.5 -3.25 C -0.53125 -5.382812 -0.40625 -7.660156 -0.125 -10.078125 C 0.144531 -12.503906 0.515625 -14.828125 0.984375 -17.046875 C 1.460938 -19.273438 1.941406 -21.109375 2.421875 -22.546875 C 2.535156 -22.910156 2.773438 -23.148438 3.140625 -23.265625 C 3.546875 -23.367188 3.878906 -23.3125 4.140625 -23.09375 L 4.90625 -22.546875 C 5.3125 -22.285156 5.566406 -21.925781 5.671875 -21.46875 C 5.785156 -21.007812 5.75 -20.5625 5.5625 -20.125 C 5.007812 -18.800781 4.53125 -17.347656 4.125 -15.765625 C 3.726562 -14.179688 3.4375 -12.488281 3.25 -10.6875 C 3.726562 -12.125 4.285156 -13.585938 4.921875 -15.078125 C 5.566406 -16.566406 6.265625 -17.953125 7.015625 -19.234375 C 7.773438 -20.523438 8.523438 -21.519531 9.265625 -22.21875 C 9.816406 -22.769531 10.492188 -22.9375 11.296875 -22.71875 C 12.328125 -22.382812 12.9375 -21.832031 13.125 -21.0625 C 13.269531 -20.46875 13.273438 -19.847656 13.140625 -19.203125 C 13.015625 -18.566406 12.859375 -17.828125 12.671875 -16.984375 C 12.597656 -16.609375 12.503906 -16.203125 12.390625 -15.765625 C 12.285156 -15.328125 12.195312 -14.867188 12.125 -14.390625 C 12.457031 -15.015625 12.832031 -15.664062 13.25 -16.34375 C 13.675781 -17.019531 14.144531 -17.691406 14.65625 -18.359375 C 14.914062 -18.648438 15.3125 -19.109375 15.84375 -19.734375 C 16.375 -20.359375 16.960938 -20.914062 17.609375 -21.40625 C 18.253906 -21.90625 18.816406 -22.140625 19.296875 -22.109375 C 20.285156 -22.066406 21.035156 -21.742188 21.546875 -21.140625 C 22.066406 -20.535156 22.378906 -19.972656 22.484375 -19.453125 C 22.523438 -19.273438 22.488281 -18.984375 22.375 -18.578125 C 22.269531 -18.171875 22.109375 -17.601562 21.890625 -16.875 C 21.628906 -15.988281 21.359375 -14.984375 21.078125 -13.859375 C 20.804688 -12.742188 20.601562 -11.625 20.46875 -10.5 C 20.34375 -9.375 20.390625 -8.351562 20.609375 -7.4375 C 20.722656 -7 20.890625 -6.554688 21.109375 -6.109375 C 21.328125 -5.671875 21.625 -5.414062 22 -5.34375 C 22.144531 -5.3125 22.328125 -5.335938 22.546875 -5.421875 C 22.765625 -5.515625 23.054688 -5.710938 23.421875 -6.015625 C 23.421875 -6.046875 23.429688 -6.0625 23.453125 -6.0625 C 23.472656 -6.0625 23.484375 -6.0625 23.484375 -6.0625 C 23.921875 -6.46875 24.441406 -7.070312 25.046875 -7.875 C 25.660156 -8.6875 26.367188 -9.8125 27.171875 -11.25 C 27.316406 -11.46875 27.503906 -11.519531 27.734375 -11.40625 Z M 27.734375 -11.40625 "/></g></g></g><g fill="#4d3e3e" fill-opacity="1"><g transform="translate(220.169972, 197.999987)"><g><path d="M 20.671875 -11.25 C 20.816406 -11.03125 20.78125 -10.84375 20.5625 -10.6875 C 20.519531 -10.65625 20.050781 -10.410156 19.15625 -9.953125 C 18.257812 -9.492188 17.164062 -9.113281 15.875 -8.8125 C 15.46875 -8.738281 15.0625 -8.675781 14.65625 -8.625 C 14.257812 -8.570312 13.875 -8.546875 13.5 -8.546875 C 13.132812 -8.546875 12.785156 -8.570312 12.453125 -8.625 C 12.128906 -8.675781 11.800781 -8.722656 11.46875 -8.765625 C 10.988281 -7.515625 10.34375 -6.347656 9.53125 -5.265625 C 8.726562 -4.179688 7.773438 -3.378906 6.671875 -2.859375 C 6.003906 -2.535156 5.320312 -2.375 4.625 -2.375 C 3.53125 -2.375 2.554688 -2.722656 1.703125 -3.421875 C 0.972656 -4.046875 0.378906 -5.019531 -0.078125 -6.34375 C -0.535156 -7.664062 -0.507812 -9.265625 0 -11.140625 C 0.625 -13.304688 1.410156 -15.140625 2.359375 -16.640625 C 3.316406 -18.148438 4.367188 -19.203125 5.515625 -19.796875 C 6.691406 -20.378906 7.90625 -20.453125 9.15625 -20.015625 C 11.175781 -19.273438 12.273438 -17.4375 12.453125 -14.5 C 12.492188 -13.726562 12.457031 -12.925781 12.34375 -12.09375 C 12.238281 -11.269531 12.035156 -10.4375 11.734375 -9.59375 C 12.734375 -9.375 13.726562 -9.328125 14.71875 -9.453125 C 15.707031 -9.578125 16.601562 -9.796875 17.40625 -10.109375 C 18.21875 -10.421875 18.875 -10.707031 19.375 -10.96875 C 19.875 -11.226562 20.125 -11.359375 20.125 -11.359375 C 20.195312 -11.429688 20.296875 -11.445312 20.421875 -11.40625 C 20.546875 -11.375 20.628906 -11.320312 20.671875 -11.25 Z M 7.5 -4.359375 C 8.195312 -4.910156 8.8125 -5.597656 9.34375 -6.421875 C 9.875 -7.242188 10.320312 -8.117188 10.6875 -9.046875 C 10.613281 -9.046875 10.5625 -9.0625 10.53125 -9.09375 C 9.382812 -9.5 8.351562 -10.253906 7.4375 -11.359375 C 6.738281 -12.160156 6.269531 -12.910156 6.03125 -13.609375 C 5.789062 -14.304688 5.65625 -14.914062 5.625 -15.4375 C 4.78125 -14.332031 4.132812 -12.9375 3.6875 -11.25 C 3.175781 -9.300781 3.09375 -7.738281 3.4375 -6.5625 C 3.789062 -5.382812 4.257812 -4.59375 4.84375 -4.1875 C 5.695312 -3.601562 6.582031 -3.660156 7.5 -4.359375 Z M 10.96875 -9.8125 C 11.226562 -10.582031 11.421875 -11.367188 11.546875 -12.171875 C 11.671875 -12.984375 11.695312 -13.738281 11.625 -14.4375 C 11.625 -14.8125 11.578125 -15.234375 11.484375 -15.703125 C 11.398438 -16.179688 11.25 -16.660156 11.03125 -17.140625 C 10.695312 -17.953125 10.125 -18.300781 9.3125 -18.1875 C 9.164062 -18.1875 9.039062 -18.171875 8.9375 -18.140625 C 8.820312 -17.835938 8.707031 -17.335938 8.59375 -16.640625 C 8.488281 -15.941406 8.441406 -15.171875 8.453125 -14.328125 C 8.472656 -13.484375 8.632812 -12.675781 8.9375 -11.90625 C 9.332031 -10.875 9.953125 -10.195312 10.796875 -9.875 C 10.835938 -9.832031 10.894531 -9.8125 10.96875 -9.8125 Z M 10.96875 -9.8125 "/></g></g></g><g fill="#4d3e3e" fill-opacity="1"><g transform="translate(238.416008, 197.999987)"><g><path d="M 22.71875 -11.40625 C 22.96875 -11.257812 23.019531 -11.078125 22.875 -10.859375 C 21.84375 -9.054688 20.882812 -7.472656 20 -6.109375 C 19.125 -4.753906 18.28125 -3.617188 17.46875 -2.703125 L 17.359375 -2.59375 C 15.816406 -0.863281 14.476562 0 13.34375 0 C 13.269531 0 13.195312 -0.0078125 13.125 -0.03125 C 13.050781 -0.0507812 12.976562 -0.0625 12.90625 -0.0625 C 12.125 -0.238281 11.554688 -0.722656 11.203125 -1.515625 C 10.859375 -2.304688 10.648438 -3.101562 10.578125 -3.90625 C 10.503906 -4.976562 10.550781 -6.21875 10.71875 -7.625 C 10.882812 -9.039062 11.148438 -10.523438 11.515625 -12.078125 C 10.816406 -10.828125 10.097656 -9.613281 9.359375 -8.4375 C 8.628906 -7.257812 7.878906 -6.226562 7.109375 -5.34375 C 7.078125 -5.3125 7.039062 -5.273438 7 -5.234375 C 6.96875 -5.203125 6.910156 -5.148438 6.828125 -5.078125 C 6.359375 -4.523438 5.875 -4.046875 5.375 -3.640625 C 4.875 -3.234375 4.367188 -2.9375 3.859375 -2.75 C 3.421875 -2.570312 3.015625 -2.484375 2.640625 -2.484375 C 2.316406 -2.484375 1.96875 -2.570312 1.59375 -2.75 C 0.894531 -3.007812 0.382812 -3.65625 0.0625 -4.6875 C -0.3125 -5.820312 -0.414062 -7.257812 -0.25 -9 C -0.0820312 -10.75 0.300781 -12.597656 0.90625 -14.546875 C 1.507812 -16.492188 2.3125 -18.332031 3.3125 -20.0625 C 3.457031 -20.425781 3.785156 -20.664062 4.296875 -20.78125 C 4.703125 -20.894531 5.085938 -20.800781 5.453125 -20.5 L 5.84375 -20.234375 C 6.207031 -19.972656 6.441406 -19.601562 6.546875 -19.125 C 6.660156 -18.644531 6.628906 -18.207031 6.453125 -17.8125 C 5.304688 -15.050781 4.519531 -12.757812 4.09375 -10.9375 C 3.675781 -9.125 3.503906 -7.75 3.578125 -6.8125 C 3.648438 -5.875 3.835938 -5.332031 4.140625 -5.1875 C 4.648438 -4.925781 5.109375 -4.914062 5.515625 -5.15625 C 5.921875 -5.394531 6.195312 -5.585938 6.34375 -5.734375 C 6.414062 -5.804688 6.453125 -5.84375 6.453125 -5.84375 L 6.5 -5.890625 C 7.53125 -7.066406 8.566406 -8.566406 9.609375 -10.390625 C 10.660156 -12.210938 11.644531 -14.097656 12.5625 -16.046875 C 13.300781 -18.390625 14.078125 -20.390625 14.890625 -22.046875 C 15.109375 -22.523438 15.457031 -22.820312 15.9375 -22.9375 C 16.445312 -23.113281 16.921875 -23.054688 17.359375 -22.765625 L 17.6875 -22.546875 C 18.0625 -22.359375 18.3125 -22.085938 18.4375 -21.734375 C 18.5625 -21.390625 18.535156 -21.035156 18.359375 -20.671875 C 16.671875 -16.367188 15.472656 -12.65625 14.765625 -9.53125 C 14.066406 -6.40625 13.957031 -4.296875 14.4375 -3.203125 C 14.625 -2.867188 14.847656 -2.644531 15.109375 -2.53125 C 15.398438 -2.425781 15.71875 -2.484375 16.0625 -2.703125 C 16.414062 -2.921875 16.664062 -3.085938 16.8125 -3.203125 C 16.8125 -3.203125 16.820312 -3.203125 16.84375 -3.203125 C 16.863281 -3.203125 16.875 -3.21875 16.875 -3.25 C 17.570312 -4.019531 18.347656 -5.046875 19.203125 -6.328125 C 20.066406 -7.617188 21.050781 -9.257812 22.15625 -11.25 C 22.300781 -11.5 22.488281 -11.550781 22.71875 -11.40625 Z M 22.71875 -11.40625 "/></g></g></g><g fill="#4d3e3e" fill-opacity="1"><g transform="translate(259.252916, 197.999987)"><g><path d="M 17.578125 -11.40625 C 17.804688 -11.300781 17.863281 -11.117188 17.75 -10.859375 C 16.757812 -8.765625 15.675781 -6.878906 14.5 -5.203125 C 13.320312 -3.535156 12.144531 -2.1875 10.96875 -1.15625 C 10.9375 -1.125 10.898438 -1.085938 10.859375 -1.046875 C 10.816406 -1.015625 10.757812 -0.957031 10.6875 -0.875 C 9.289062 0.332031 8.082031 0.9375 7.0625 0.9375 L 7 0.9375 C 6.1875 0.9375 5.523438 0.585938 5.015625 -0.109375 C 4.578125 -0.804688 4.347656 -1.707031 4.328125 -2.8125 C 4.304688 -3.914062 4.429688 -5.109375 4.703125 -6.390625 C 4.984375 -7.679688 5.363281 -8.914062 5.84375 -10.09375 C 5.363281 -10.019531 4.738281 -9.960938 3.96875 -9.921875 C 3.195312 -9.890625 2.414062 -9.9375 1.625 -10.0625 C 0.832031 -10.1875 0.21875 -10.488281 -0.21875 -10.96875 C -1.03125 -11.8125 -1.367188 -12.785156 -1.234375 -13.890625 C -1.109375 -14.992188 -0.640625 -16.390625 0.171875 -18.078125 C 0.316406 -18.523438 0.644531 -18.800781 1.15625 -18.90625 C 1.664062 -19.019531 2.085938 -18.910156 2.421875 -18.578125 L 2.921875 -18.140625 C 3.328125 -17.804688 3.582031 -17.390625 3.6875 -16.890625 C 3.800781 -16.398438 3.75 -15.914062 3.53125 -15.4375 C 3.238281 -14.769531 2.953125 -14.039062 2.671875 -13.25 C 2.398438 -12.46875 2.375 -11.890625 2.59375 -11.515625 C 2.769531 -11.222656 3.171875 -11.078125 3.796875 -11.078125 C 4.535156 -11.046875 5.375 -11.175781 6.3125 -11.46875 C 7.25 -11.757812 8.066406 -12.050781 8.765625 -12.34375 C 9.203125 -12.53125 9.609375 -12.441406 9.984375 -12.078125 C 10.347656 -11.773438 10.4375 -11.367188 10.25 -10.859375 C 9.8125 -9.722656 9.425781 -8.5 9.09375 -7.1875 C 8.757812 -5.882812 8.535156 -4.703125 8.421875 -3.640625 C 8.316406 -2.578125 8.375 -1.804688 8.59375 -1.328125 C 8.707031 -1.140625 8.800781 -1.046875 8.875 -1.046875 C 9.0625 -1.015625 9.253906 -1.035156 9.453125 -1.109375 C 9.648438 -1.179688 9.84375 -1.269531 10.03125 -1.375 C 11.09375 -2.289062 12.25 -3.582031 13.5 -5.25 C 14.75 -6.925781 15.925781 -8.90625 17.03125 -11.1875 C 17.175781 -11.445312 17.359375 -11.519531 17.578125 -11.40625 Z M 17.578125 -11.40625 "/></g></g></g><g fill="#4d3e3e" fill-opacity="1"><g transform="translate(275.018331, 197.999987)"><g><path d="M 27.0625 -11.296875 C 27.207031 -11.515625 27.394531 -11.515625 27.625 -11.296875 C 27.84375 -11.148438 27.84375 -10.96875 27.625 -10.75 C 26.1875 -9.28125 24.628906 -8.222656 22.953125 -7.578125 C 21.285156 -6.929688 19.597656 -6.523438 17.890625 -6.359375 C 16.179688 -6.203125 14.5 -6.101562 12.84375 -6.0625 C 12.4375 -6.0625 12.019531 -6.050781 11.59375 -6.03125 C 11.175781 -6.019531 10.765625 -6.015625 10.359375 -6.015625 C 9.328125 -3.441406 8.316406 -1.546875 7.328125 -0.328125 C 6.597656 0.585938 5.84375 1.25 5.0625 1.65625 C 4.289062 2.0625 3.578125 2.265625 2.921875 2.265625 C 2.222656 2.265625 1.65625 2.097656 1.21875 1.765625 C 0.550781 1.398438 0.164062 0.832031 0.0625 0.0625 C 0.0195312 0.0195312 0 -0.0078125 0 -0.03125 C 0 -0.0507812 0 -0.0625 0 -0.0625 L 0 -0.21875 C -0.0703125 -0.738281 0.0351562 -1.253906 0.328125 -1.765625 C 1.066406 -3.160156 1.957031 -4.195312 3 -4.875 C 4.050781 -5.550781 5.203125 -6.039062 6.453125 -6.34375 C 7.296875 -8.46875 8.238281 -11.257812 9.28125 -14.71875 C 10.332031 -18.175781 11.410156 -22.171875 12.515625 -26.703125 C 13.617188 -31.242188 14.644531 -36.160156 15.59375 -41.453125 C 15.664062 -41.710938 15.816406 -41.878906 16.046875 -41.953125 C 16.441406 -42.097656 16.960938 -42.015625 17.609375 -41.703125 C 18.253906 -41.390625 18.722656 -41.101562 19.015625 -40.84375 C 19.421875 -40.507812 19.585938 -40.195312 19.515625 -39.90625 C 19.253906 -38.695312 18.910156 -37.109375 18.484375 -35.140625 C 18.066406 -33.171875 17.570312 -30.984375 17 -28.578125 C 16.4375 -26.171875 15.8125 -23.679688 15.125 -21.109375 C 14.445312 -18.535156 13.738281 -16.019531 13 -13.5625 C 12.269531 -11.101562 11.5 -8.859375 10.6875 -6.828125 C 11.0625 -6.828125 11.421875 -6.835938 11.765625 -6.859375 C 12.117188 -6.878906 12.476562 -6.890625 12.84375 -6.890625 C 14.5 -6.929688 16.148438 -7.023438 17.796875 -7.171875 C 19.453125 -7.316406 21.070312 -7.691406 22.65625 -8.296875 C 24.238281 -8.898438 25.707031 -9.898438 27.0625 -11.296875 Z M 4.6875 -2.640625 C 4.875 -2.941406 5.082031 -3.320312 5.3125 -3.78125 C 5.550781 -4.238281 5.800781 -4.78125 6.0625 -5.40625 C 5.03125 -5.113281 4.09375 -4.660156 3.25 -4.046875 C 2.40625 -3.441406 1.671875 -2.550781 1.046875 -1.375 C 0.828125 -1.007812 0.753906 -0.585938 0.828125 -0.109375 C 0.898438 0.148438 1.03125 0.28125 1.21875 0.28125 C 1.46875 0.3125 1.90625 0.117188 2.53125 -0.296875 C 3.15625 -0.722656 3.875 -1.503906 4.6875 -2.640625 Z M 4.6875 -2.640625 "/></g></g></g><g fill="#4d3e3e" fill-opacity="1"><g transform="translate(300.595989, 197.999987)"><g><path d="M 20.015625 -11.40625 C 20.191406 -11.375 20.316406 -11.210938 20.390625 -10.921875 C 20.390625 -10.921875 20.296875 -10.539062 20.109375 -9.78125 C 19.929688 -9.03125 19.695312 -8.082031 19.40625 -6.9375 C 19.113281 -5.800781 18.765625 -4.609375 18.359375 -3.359375 C 16.671875 1.566406 14.976562 4.03125 13.28125 4.03125 L 13.0625 4.03125 C 12.144531 3.914062 11.410156 3.378906 10.859375 2.421875 C 10.378906 1.578125 10.035156 0.550781 9.828125 -0.65625 C 9.628906 -1.875 9.53125 -3.132812 9.53125 -4.4375 C 9.53125 -5.738281 9.566406 -6.925781 9.640625 -8 C 9.390625 -7.300781 9.109375 -6.679688 8.796875 -6.140625 C 8.484375 -5.609375 8.179688 -5.125 7.890625 -4.6875 C 7.890625 -4.644531 7.878906 -4.625 7.859375 -4.625 C 7.835938 -4.625 7.828125 -4.609375 7.828125 -4.578125 C 7.710938 -4.535156 7.640625 -4.460938 7.609375 -4.359375 C 6.941406 -3.441406 6.269531 -2.785156 5.59375 -2.390625 C 4.914062 -2.003906 4.265625 -1.8125 3.640625 -1.8125 C 3.378906 -1.8125 3.175781 -1.832031 3.03125 -1.875 C 2.8125 -1.945312 2.453125 -2.09375 1.953125 -2.3125 C 1.460938 -2.53125 0.992188 -2.972656 0.546875 -3.640625 C 0.179688 -4.296875 -0.109375 -5.285156 -0.328125 -6.609375 C -0.546875 -7.929688 -0.378906 -9.734375 0.171875 -12.015625 C 0.679688 -13.859375 1.296875 -15.3125 2.015625 -16.375 C 2.734375 -17.4375 3.457031 -18.242188 4.1875 -18.796875 C 4.925781 -19.347656 5.550781 -19.71875 6.0625 -19.90625 C 7.238281 -20.34375 8.269531 -20.378906 9.15625 -20.015625 C 10.21875 -19.492188 10.914062 -18.554688 11.25 -17.203125 L 11.25 -17.09375 C 11.570312 -18.300781 11.9375 -19.421875 12.34375 -20.453125 C 12.75 -21.484375 13.132812 -22.363281 13.5 -23.09375 C 13.757812 -23.425781 14.070312 -23.613281 14.4375 -23.65625 C 14.882812 -23.65625 15.253906 -23.503906 15.546875 -23.203125 L 16.375 -22.4375 C 16.8125 -22.070312 17.09375 -21.628906 17.21875 -21.109375 C 17.351562 -20.597656 17.328125 -20.117188 17.140625 -19.671875 C 16.335938 -17.765625 15.613281 -15.609375 14.96875 -13.203125 C 14.320312 -10.796875 13.851562 -8.398438 13.5625 -6.015625 C 13.195312 -3.328125 13.09375 -1.382812 13.25 -0.1875 C 13.414062 1 13.59375 1.648438 13.78125 1.765625 C 14.1875 1.984375 14.546875 1.953125 14.859375 1.671875 C 15.171875 1.398438 15.398438 1.191406 15.546875 1.046875 C 16.097656 0.0546875 16.628906 -1.144531 17.140625 -2.5625 C 17.660156 -3.976562 18.117188 -5.445312 18.515625 -6.96875 C 18.921875 -8.5 19.253906 -9.90625 19.515625 -11.1875 C 19.585938 -11.40625 19.753906 -11.476562 20.015625 -11.40625 Z M 10.75 -14.890625 C 10.75 -15.660156 10.65625 -16.359375 10.46875 -16.984375 C 10.363281 -17.273438 10.179688 -17.554688 9.921875 -17.828125 C 9.660156 -18.109375 9.382812 -18.265625 9.09375 -18.296875 C 8.832031 -18.335938 8.410156 -18.203125 7.828125 -17.890625 C 7.242188 -17.578125 6.640625 -16.921875 6.015625 -15.921875 C 5.390625 -14.929688 4.875 -13.445312 4.46875 -11.46875 C 4.019531 -9.375 3.804688 -7.820312 3.828125 -6.8125 C 3.847656 -5.800781 3.976562 -5.140625 4.21875 -4.828125 C 4.457031 -4.515625 4.648438 -4.300781 4.796875 -4.1875 C 5.015625 -4.039062 5.351562 -4.015625 5.8125 -4.109375 C 6.269531 -4.203125 6.722656 -4.539062 7.171875 -5.125 C 8.191406 -6.59375 9.179688 -8.722656 10.140625 -11.515625 C 10.210938 -12.109375 10.296875 -12.679688 10.390625 -13.234375 C 10.484375 -13.785156 10.601562 -14.335938 10.75 -14.890625 Z M 10.75 -14.890625 "/></g></g></g><g fill="#4d3e3e" fill-opacity="1"><g transform="translate(318.952277, 197.999987)"><g><path d="M 18.96875 -11.40625 C 19.070312 -11.375 19.148438 -11.300781 19.203125 -11.1875 C 19.265625 -11.082031 19.257812 -10.992188 19.1875 -10.921875 C 18.851562 -9.921875 18.398438 -8.820312 17.828125 -7.625 C 17.265625 -6.4375 16.660156 -5.34375 16.015625 -4.34375 C 15.367188 -3.351562 14.734375 -2.625 14.109375 -2.15625 L 14 -2.09375 C 13.8125 -1.875 13.539062 -1.632812 13.1875 -1.375 C 12.84375 -1.125 12.398438 -1 11.859375 -1 C 11.523438 -1 11.082031 -1.085938 10.53125 -1.265625 C 9.789062 -1.554688 9.3125 -1.953125 9.09375 -2.453125 C 8.875 -2.953125 8.765625 -3.625 8.765625 -4.46875 C 8.796875 -5.71875 8.992188 -7.1875 9.359375 -8.875 C 9.734375 -10.5625 10.164062 -12.238281 10.65625 -13.90625 C 11.15625 -15.582031 11.59375 -16.992188 11.96875 -18.140625 L 12.453125 -19.796875 C 12.671875 -20.566406 12.671875 -21.0625 12.453125 -21.28125 C 12.347656 -21.351562 12.179688 -21.367188 11.953125 -21.328125 C 11.734375 -21.296875 11.535156 -21.242188 11.359375 -21.171875 C 11.140625 -21.023438 10.910156 -20.847656 10.671875 -20.640625 C 10.429688 -20.441406 10.179688 -20.195312 9.921875 -19.90625 C 9.078125 -19.050781 8.269531 -18.054688 7.5 -16.921875 C 6.726562 -15.785156 6.035156 -14.628906 5.421875 -13.453125 C 4.816406 -12.273438 4.335938 -11.207031 3.984375 -10.25 C 3.640625 -9.289062 3.46875 -8.554688 3.46875 -8.046875 C 3.507812 -7.160156 3.554688 -6.332031 3.609375 -5.5625 C 3.660156 -4.789062 3.722656 -4.148438 3.796875 -3.640625 C 3.867188 -3.347656 3.78125 -3.109375 3.53125 -2.921875 C 3.382812 -2.703125 3.160156 -2.59375 2.859375 -2.59375 L 2.8125 -2.59375 L 2.484375 -2.640625 C 1.523438 -2.710938 0.914062 -3.226562 0.65625 -4.1875 C 0.40625 -5.363281 0.222656 -6.703125 0.109375 -8.203125 C -0.00390625 -9.710938 -0.0390625 -11.25 0 -12.8125 C 0.0390625 -14.375 0.125 -15.84375 0.25 -17.21875 C 0.375 -18.601562 0.546875 -19.753906 0.765625 -20.671875 C 0.878906 -20.960938 1.066406 -21.164062 1.328125 -21.28125 C 1.617188 -21.382812 1.894531 -21.363281 2.15625 -21.21875 L 3.140625 -20.609375 C 3.503906 -20.390625 3.769531 -20.078125 3.9375 -19.671875 C 4.101562 -19.273438 4.132812 -18.875 4.03125 -18.46875 C 3.84375 -17.507812 3.703125 -16.378906 3.609375 -15.078125 C 3.515625 -13.773438 3.453125 -12.441406 3.421875 -11.078125 C 4.046875 -12.585938 4.890625 -14.234375 5.953125 -16.015625 C 7.015625 -17.796875 8.132812 -19.289062 9.3125 -20.5 C 10.675781 -21.863281 11.875 -22.546875 12.90625 -22.546875 C 13.75 -22.546875 14.425781 -22.160156 14.9375 -21.390625 C 15.445312 -20.617188 15.742188 -19.789062 15.828125 -18.90625 C 15.859375 -18.613281 15.765625 -18.050781 15.546875 -17.21875 C 15.328125 -16.394531 15.015625 -15.285156 14.609375 -13.890625 C 14.347656 -12.898438 14.0625 -11.832031 13.75 -10.6875 C 13.4375 -9.550781 13.160156 -8.441406 12.921875 -7.359375 C 12.679688 -6.273438 12.523438 -5.328125 12.453125 -4.515625 C 12.378906 -3.710938 12.4375 -3.144531 12.625 -2.8125 C 12.769531 -2.519531 12.898438 -2.425781 13.015625 -2.53125 C 13.191406 -2.53125 13.351562 -2.601562 13.5 -2.75 C 13.539062 -2.75 13.578125 -2.769531 13.609375 -2.8125 C 14.054688 -3.175781 14.570312 -3.78125 15.15625 -4.625 C 15.75 -5.46875 16.335938 -6.46875 16.921875 -7.625 C 17.515625 -8.789062 18.007812 -9.976562 18.40625 -11.1875 C 18.550781 -11.40625 18.738281 -11.476562 18.96875 -11.40625 Z M 18.96875 -11.40625 "/></g></g></g><g fill="#4d3e3e" fill-opacity="1"><g transform="translate(336.095834, 197.999987)"><g><path d="M 17.09375 -11.296875 C 17.269531 -11.148438 17.304688 -10.945312 17.203125 -10.6875 C 14.992188 -7.789062 13.085938 -5.566406 11.484375 -4.015625 C 9.890625 -2.472656 8.378906 -1.445312 6.953125 -0.9375 C 6.953125 -0.894531 6.941406 -0.875 6.921875 -0.875 C 6.898438 -0.875 6.890625 -0.875 6.890625 -0.875 C 6.003906 -0.582031 5.175781 -0.4375 4.40625 -0.4375 C 3.820312 -0.4375 3.132812 -0.617188 2.34375 -0.984375 C 1.550781 -1.359375 0.84375 -1.984375 0.21875 -2.859375 C -0.257812 -3.597656 -0.617188 -4.628906 -0.859375 -5.953125 C -1.097656 -7.273438 -0.8125 -8.984375 0 -11.078125 C 1.363281 -14.566406 2.867188 -17.019531 4.515625 -18.4375 C 6.171875 -19.851562 7.625 -20.5625 8.875 -20.5625 C 10.082031 -20.5625 11.019531 -20.03125 11.6875 -18.96875 C 11.757812 -18.851562 11.820312 -18.738281 11.875 -18.625 C 11.9375 -18.519531 11.984375 -18.375 12.015625 -18.1875 C 12.085938 -17.96875 12.125 -17.785156 12.125 -17.640625 C 12.195312 -17.273438 12.1875 -16.84375 12.09375 -16.34375 C 12.007812 -15.84375 11.816406 -15.28125 11.515625 -14.65625 C 10.859375 -13.445312 10.003906 -12.492188 8.953125 -11.796875 C 7.910156 -11.097656 6.921875 -10.601562 5.984375 -10.3125 C 5.046875 -10.019531 4.394531 -9.832031 4.03125 -9.75 C 3.476562 -8.175781 3.21875 -6.71875 3.25 -5.375 C 3.289062 -4.03125 3.601562 -3.007812 4.1875 -2.3125 C 4.8125 -1.582031 5.640625 -1.363281 6.671875 -1.65625 L 6.71875 -1.65625 C 7.894531 -2.09375 9.242188 -3.019531 10.765625 -4.4375 C 12.296875 -5.851562 14.21875 -8.101562 16.53125 -11.1875 C 16.71875 -11.375 16.90625 -11.410156 17.09375 -11.296875 Z M 4.46875 -10.859375 L 4.359375 -10.6875 C 4.867188 -10.800781 5.523438 -11.015625 6.328125 -11.328125 C 7.140625 -11.640625 7.957031 -12.097656 8.78125 -12.703125 C 9.613281 -13.304688 10.285156 -14.085938 10.796875 -15.046875 C 11.390625 -16.148438 11.539062 -17.125 11.25 -17.96875 L 10.921875 -18.40625 C 10.617188 -18.59375 10.285156 -18.613281 9.921875 -18.46875 C 9.335938 -18.28125 8.578125 -17.660156 7.640625 -16.609375 C 6.703125 -15.566406 5.644531 -13.648438 4.46875 -10.859375 Z M 4.46875 -10.859375 "/></g></g></g><path fill="#4d3e3e" d="M 107 210.707031 C 103.976562 211.480469 100.738281 212.855469 98.632812 214.636719 C 96.355469 216.570312 95.394531 218.441406 95.222656 220.054688 C 95.039062 221.746094 95.707031 223.183594 96.734375 224.191406 C 100.765625 228.152344 107.507812 228.128906 112.972656 225.226562 C 116.34375 223.433594 118.988281 221.734375 121.042969 220.152344 C 120.460938 221.714844 119.613281 223.277344 118.445312 224.816406 C 113.800781 230.925781 107.300781 234.046875 101.175781 235.597656 C 91.945312 237.941406 83.554688 236.722656 83.554688 236.722656 C 83.261719 236.679688 82.988281 236.882812 82.945312 237.175781 C 82.902344 237.46875 83.105469 237.742188 83.398438 237.785156 C 83.398438 237.785156 91.988281 239.035156 101.441406 236.640625 C 107.777344 235.03125 114.492188 231.789062 119.296875 225.464844 C 120.941406 223.308594 121.988281 221.101562 122.566406 218.910156 C 123.734375 217.902344 124.660156 216.949219 125.378906 216.066406 C 126.335938 214.890625 126.941406 213.824219 127.292969 212.894531 C 127.363281 212.867188 127.4375 212.835938 127.507812 212.804688 C 129.128906 212.074219 129.863281 210.398438 130.214844 208.257812 C 130.6875 205.375 130.492188 201.617188 131.53125 198.625 C 133.160156 193.921875 137.042969 192.105469 139.820312 192.734375 C 140.109375 192.800781 140.394531 192.621094 140.460938 192.332031 C 140.527344 192.042969 140.34375 191.753906 140.058594 191.6875 C 136.890625 190.972656 132.375 192.914062 130.515625 198.273438 C 129.460938 201.320312 129.636719 205.148438 129.15625 208.082031 C 128.917969 209.523438 128.539062 210.746094 127.664062 211.457031 C 127.863281 209.914062 127.289062 208.882812 126.605469 208.4375 C 126.242188 208.199219 125.839844 208.109375 125.449219 208.167969 C 123.859375 208.398438 123.375 209.984375 123.851562 211.332031 C 124.128906 212.109375 124.726562 212.78125 125.5625 213.015625 C 125.714844 213.058594 125.875 213.085938 126.042969 213.097656 C 125.710938 213.789062 125.222656 214.554688 124.546875 215.386719 C 124.097656 215.9375 123.566406 216.515625 122.941406 217.117188 C 123.542969 213.21875 122.761719 209.410156 121.332031 206.019531 C 118.902344 200.261719 114.582031 195.738281 112.046875 194.082031 C 108.148438 191.539062 104.902344 190.476562 102.464844 190.464844 C 100.722656 190.457031 99.367188 190.976562 98.429688 191.863281 C 97.484375 192.761719 96.949219 194.046875 96.898438 195.601562 C 96.828125 197.789062 97.730469 200.546875 99.777344 203.476562 C 101.75 206.296875 104.449219 208.855469 107 210.707031 Z M 121.601562 218.324219 C 122.617188 214.15625 121.867188 210.042969 120.34375 206.4375 C 118.011719 200.917969 113.890625 196.566406 111.457031 194.984375 C 107.792969 192.589844 104.753906 191.550781 102.460938 191.539062 C 101.042969 191.53125 99.933594 191.921875 99.167969 192.644531 C 98.414062 193.359375 98.011719 194.394531 97.972656 195.636719 C 97.910156 197.648438 98.773438 200.167969 100.65625 202.859375 C 102.765625 205.875 105.726562 208.59375 108.390625 210.390625 C 109.769531 210.117188 111.054688 209.984375 112.101562 210.011719 C 113.128906 210.039062 113.949219 210.230469 114.457031 210.554688 C 114.914062 210.84375 115.167969 211.238281 115.207031 211.722656 C 115.261719 212.40625 115.078125 212.890625 114.761719 213.207031 C 114.324219 213.644531 113.550781 213.800781 112.527344 213.578125 C 111.375 213.328125 109.84375 212.597656 108.183594 211.519531 C 105.074219 212.1875 101.539062 213.585938 99.328125 215.457031 C 97.332031 217.148438 96.441406 218.757812 96.289062 220.167969 C 96.148438 221.5 96.679688 222.632812 97.484375 223.425781 C 101.207031 227.078125 107.429688 226.957031 112.46875 224.277344 C 116.496094 222.140625 119.457031 220.136719 121.601562 218.324219 Z M 109.746094 211.238281 C 110.886719 211.898438 111.925781 212.347656 112.757812 212.53125 C 113.085938 212.601562 113.375 212.628906 113.617188 212.601562 C 113.773438 212.582031 113.910156 212.539062 114 212.449219 C 114.132812 212.3125 114.160156 212.097656 114.136719 211.808594 C 114.121094 211.597656 113.945312 211.472656 113.703125 211.367188 C 113.304688 211.1875 112.746094 211.101562 112.074219 211.085938 C 111.390625 211.066406 110.597656 211.121094 109.746094 211.238281 Z M 126.457031 212.011719 C 126.515625 211.796875 126.558594 211.59375 126.589844 211.398438 C 126.722656 210.488281 126.53125 209.820312 126.167969 209.460938 C 126 209.292969 125.800781 209.203125 125.605469 209.230469 C 124.949219 209.324219 124.710938 209.902344 124.757812 210.476562 C 124.800781 211.054688 125.117188 211.664062 125.671875 211.914062 C 125.898438 212.015625 126.160156 212.054688 126.457031 212.011719 Z M 126.457031 212.011719 " fill-opacity="1" fill-rule="evenodd"/></svg>